<?xml version="1.0" encoding="iso-8859-1"?>
<!-- Generator: Adobe Illustrator 19.0.0, SVG Export Plug-In . SVG Version: 6.00 Build 0)  -->
<svg version="1.1" id="Layer_1" xmlns="http://www.w3.org/2000/svg" xmlns:xlink="http://www.w3.org/1999/xlink" x="0px" y="0px"
	 viewBox="0 0 512 512" style="enable-background:new 0 0 512 512;" xml:space="preserve">
<path d="M0,365.6v-324c0.104-5.704,4.696-10.296,10.4-10.4h491.2c5.704,0.104,10.296,4.696,10.4,10.4v324H0z"/>
<g>
	<path style="fill:#BCBCBC;" d="M512,365.6v41.6c-0.104,5.704-4.696,10.296-10.4,10.4H10.4c-5.704-0.104-10.296-4.696-10.4-10.4
		v-41.6H512z"/>
	<rect x="146.4" y="491.2" style="fill:#BCBCBC;" width="219.2" height="10.4"/>
</g>
<polygon style="fill:#666666;" points="328.8,491.2 183.2,491.2 193.6,417.6 318.4,417.6 "/>
<rect x="20.8" y="52" style="fill:#FFFFFF;" width="470.4" height="292.8"/>
<polygon style="fill:#333333;" points="318.4,417.6 193.6,417.6 187.792,458.68 320.272,430.824 "/>
<g>
	<path style="fill:#CCCCCC;" d="M221.904,92.992c61.528,0,111.408,49.88,111.408,111.408s-49.88,111.408-111.408,111.408
		S110.496,265.928,110.496,204.4C110.568,142.904,160.408,93.064,221.904,92.992 M221.904,84.992
		C155.96,85,102.496,138.464,102.504,204.408c0.008,65.944,53.472,119.408,119.416,119.4s119.4-53.464,119.4-119.408
		S287.856,84.992,221.912,84.992C221.912,84.992,221.904,84.992,221.904,84.992z"/>
	<path style="fill:#CCCCCC;" d="M221.904,123.936c44.44,0,80.464,36.024,80.464,80.464s-36.024,80.464-80.464,80.464
		S141.44,248.84,141.44,204.4C141.488,159.984,177.488,123.984,221.904,123.936 M221.904,115.936
		c-48.856,0.016-88.448,39.64-88.432,88.496s39.64,88.448,88.496,88.432c48.848-0.016,88.432-39.616,88.432-88.464
		c0-48.856-39.608-88.464-88.464-88.464C221.928,115.936,221.912,115.936,221.904,115.936z"/>
</g>
<polygon style="fill:#E2E2E2;" points="185.888,234.024 248.568,217.616 409.504,56.68 363.224,10.4 202.288,171.336 "/>
<polyline style="fill:#29414F;" points="194.88,199.648 185.888,234.024 220.256,225.024 "/>
<rect x="357.193" y="26.529" transform="matrix(0.7071 -0.7071 0.7071 0.7071 63.745 272.4002)" width="6.992" height="65.447"/>
<rect x="195.602" y="89.684" transform="matrix(0.7071 -0.7071 0.7071 0.7071 0.5772 246.2086)" style="fill:#E21B1B;" width="203.774" height="65.447"/>
<rect x="350.698" y="15.573" transform="matrix(0.7071 -0.7071 0.7071 0.7071 74.6785 276.8824)" width="41.736" height="65.447"/>
<g style="opacity:0.25;">
	<polygon style="fill:#FFFFFF;" points="185.888,234.024 387.232,34.408 363.224,10.4 202.312,171.304 	"/>
</g>
<g>
</g>
<g>
</g>
<g>
</g>
<g>
</g>
<g>
</g>
<g>
</g>
<g>
</g>
<g>
</g>
<g>
</g>
<g>
</g>
<g>
</g>
<g>
</g>
<g>
</g>
<g>
</g>
<g>
</g>
</svg>
