<svg id="Capa_1" enable-background="new 0 0 512 512" height="512" viewBox="0 0 512 512" width="512" xmlns="http://www.w3.org/2000/svg"><g><path d="m256 300h-256v212h256 256v-212z" fill="#ffb64c"/><path d="m256 300h256v212h-256z" fill="#ff9100"/><path d="m256 0-212.139 211.919 193.094 193.081h19.045 61.479l171.871-171.87z" fill="#edf5ff"/><path d="m489.35 233.13-233.35-233.13v405h61.479z" fill="#d5e8fe"/><g><g><path d="m233 248h-78v-57h30v27h48z" fill="#8cd96b"/></g></g><g><path d="m325.852 188.13h29.997v90.001h-29.997z" fill="#b5dbff" transform="matrix(.707 -.707 .707 .707 -65.006 309.347)"/></g><path d="m256 296.777-21.211-21.211-21.211 21.211 42.422 42.422 21.211 21.211 21.211-21.211z" fill="#d5e8fe"/><path d="m298.422 339.199-42.422-42.422v42.422l21.211 21.211z" fill="#b5dbff"/><path d="m256 390h-165v30h165 165v-30z" fill="#804231"/><path d="m256 390h165v30h-165z" fill="#582b1f"/><path d="m256 84.639-63.633 63.647 63.633 63.633 63.633-63.633z" fill="#8cd96b"/><path d="m256 84.639v127.28l63.633-63.633z" fill="#5ab267"/><path d="m256 127.061-21.211 21.225 21.211 21.211 21.211-21.211z" fill="#edf5ff"/><path d="m256 127.061v42.436l21.211-21.211z" fill="#d5e8fe"/></g></svg>